<?xml version="1.0" encoding="UTF-8"?>
<svg version="1.1" xmlns="http://www.w3.org/2000/svg" width="500" height="500">
<path d="M0 0 C4.29 0 8.58 0 13 0 C15.7192318 9.8698043 18.13474778 19.76175524 20.33666992 29.76025391 C20.53881104 30.67081543 20.74095215 31.58137695 20.94921875 32.51953125 C21.12799561 33.33526611 21.30677246 34.15100098 21.4909668 34.99145508 C21.93711368 37.05237487 21.93711368 37.05237487 23 39 C26.3 26.13 29.6 13.26 33 0 C36.96 0 40.92 0 45 0 C48.30003161 7.9117477 50.15990753 16.19643927 52.1875 24.5 C52.55880501 26.00531688 52.93054608 27.51052627 53.30273438 29.015625 C54.20685913 32.67586244 55.10505632 36.33750743 56 40 C56.2673999 38.82381104 56.5347998 37.64762207 56.81030273 36.43579102 C57.79995488 32.08712833 58.79438213 27.73956946 59.7902832 23.39233398 C60.22128305 21.50786803 60.65097367 19.62310215 61.0793457 17.73803711 C61.69401555 15.03420038 62.3133301 12.33146446 62.93359375 9.62890625 C63.12529648 8.78099014 63.31699921 7.93307404 63.51451111 7.0594635 C64.88612829 1.11387171 64.88612829 1.11387171 66 0 C68.01964199 -0.07244053 70.04167124 -0.08377188 72.0625 -0.0625 C73.16722656 -0.05347656 74.27195312 -0.04445313 75.41015625 -0.03515625 C76.26480469 -0.02355469 77.11945313 -0.01195312 78 0 C77.38773221 6.99065753 76.03906626 13.54884984 74.3125 20.34375 C74.04993408 21.39405396 73.78736816 22.44435791 73.5168457 23.52648926 C72.96489065 25.72897855 72.41007772 27.93075345 71.85253906 30.13183594 C70.99600104 33.51579886 70.14968901 36.90220245 69.3046875 40.2890625 C68.76622235 42.43244182 68.22718063 44.5756764 67.6875 46.71875 C67.43331299 47.73529663 67.17912598 48.75184326 66.91723633 49.79919434 C66.68029053 50.73106567 66.44334473 51.66293701 66.19921875 52.62304688 C65.99127686 53.44639526 65.78333496 54.26974365 65.5690918 55.11804199 C65 57 65 57 64 58 C61.46950598 58.07313567 58.96695163 58.09247527 56.4375 58.0625 C55.72658203 58.05798828 55.01566406 58.05347656 54.28320312 58.04882812 C52.52209987 58.03700864 50.76103964 58.01907263 49 58 C47.87696706 53.81963104 46.75601964 49.63871004 45.63696289 45.45727539 C45.25634463 44.03622506 44.87516673 42.6153245 44.4934082 41.19458008 C43.94333435 39.1470431 43.39530567 37.09896784 42.84765625 35.05078125 C42.51773682 33.82012939 42.18781738 32.58947754 41.84790039 31.3215332 C41.14175889 28.55532094 40.52382639 25.80538133 40 23 C37.98100219 26.56663427 37.06077217 30.21244502 36.0546875 34.171875 C35.87994904 34.8542926 35.70521057 35.53671021 35.525177 36.23980713 C34.97083061 38.408805 34.42283327 40.57934896 33.875 42.75 C33.49911648 44.22536712 33.12281894 45.70062882 32.74609375 47.17578125 C31.82514873 50.78247784 30.91281459 54.39119812 30 58 C25.05 58 20.1 58 15 58 C12.70426374 51.36716408 10.80469551 44.71249044 9.08203125 37.91015625 C8.81992355 36.88442001 8.55781586 35.85868378 8.2877655 34.80186462 C7.73916223 32.65176232 7.19217204 30.50124784 6.64672852 28.3503418 C5.80853979 25.0468921 4.96420468 21.74505619 4.11914062 18.44335938 C3.58557455 16.34905077 3.05235877 14.25465288 2.51953125 12.16015625 C2.26645706 11.17064468 2.01338287 10.18113312 1.75263977 9.16163635 C1.52207382 8.2498613 1.29150787 7.33808624 1.05395508 6.39868164 C0.84982498 5.59531876 0.64569489 4.79195587 0.43537903 3.96424866 C0 2 0 2 0 0 Z " fill="#010101" transform="translate(237,266)"/>
<path d="M0 0 C1.67542976 0.28604898 3.34385343 0.61781233 5 1 C5.495 5.455 5.495 5.455 6 10 C6.82201904 10.01458252 7.64403809 10.02916504 8.4909668 10.04418945 C12.22361323 10.11876333 15.95537459 10.21539512 19.6875 10.3125 C21.62786133 10.34633789 21.62786133 10.34633789 23.60742188 10.38085938 C24.85458984 10.41630859 26.10175781 10.45175781 27.38671875 10.48828125 C28.53358154 10.51446533 29.68044434 10.54064941 30.86206055 10.56762695 C36.14586181 11.29567582 39.54728636 14.05404155 43 18 C44.04410274 21.13230821 44.14536989 23.37301809 44.17700195 26.66137695 C44.19625481 28.40382439 44.19625481 28.40382439 44.21589661 30.18147278 C44.22328354 31.43771957 44.23067047 32.69396637 44.23828125 33.98828125 C44.246353 35.27937302 44.25442474 36.57046478 44.26274109 37.90068054 C44.27775386 40.6352017 44.28759857 43.36969702 44.29516602 46.10424805 C44.30622291 49.59802453 44.34061972 53.0911628 44.38033772 56.58471394 C44.41285029 59.92754369 44.41728634 63.27030562 44.42578125 66.61328125 C44.44328934 67.86345535 44.46079742 69.11362946 44.47883606 70.40168762 C44.45190929 81.18032205 44.45190929 81.18032205 40 86 C36.09467663 89.44210071 32.82617045 89.12338892 27.90380859 88.90795898 C20.13322745 88.44525061 20.13322745 88.44525061 13.22363281 91.37597656 C10.00573299 95.16413711 8.03882106 99.50260061 6 104 C4 106 4 106 1.62890625 106.09375 C-1.73065657 104.69601212 -2.40848332 102.79252848 -3.97973633 99.62792969 C-5.85907492 95.93451025 -7.75707338 92.64636686 -11 90 C-16.07295351 88.35712719 -21.2283913 88.72074678 -26.48828125 88.984375 C-30.56761081 89.13370982 -32.86571244 88.8545424 -36 86 C-40.7688898 79.62062721 -40.56941554 73.8375727 -40.49609375 66.05859375 C-40.49754898 64.81755386 -40.49900421 63.57651398 -40.50050354 62.29786682 C-40.49842507 59.01361957 -40.47745203 55.73014923 -40.44952393 52.44604492 C-40.43750049 50.43758206 -40.43913893 48.42962436 -40.44604492 46.42114258 C-40.45864966 42.55006073 -40.44995677 38.67965145 -40.43359375 34.80859375 C-40.43652939 33.61471542 -40.43946503 32.4208371 -40.44248962 31.19078064 C-40.32442482 20.78312643 -40.32442482 20.78312643 -37 16 C-32.37644272 11.72320952 -28.98449902 10.88681452 -22.80078125 10.68359375 C-21.59228516 10.64169922 -20.38378906 10.59980469 -19.13867188 10.55664062 C-17.87603516 10.51732422 -16.61339844 10.47800781 -15.3125 10.4375 C-14.03826172 10.39431641 -12.76402344 10.35113281 -11.45117188 10.30664062 C-8.30089148 10.2004514 -5.15053161 10.09840467 -2 10 C-1.90912109 9.04287109 -1.90912109 9.04287109 -1.81640625 8.06640625 C-1.73261719 7.24011719 -1.64882813 6.41382813 -1.5625 5.5625 C-1.48128906 4.73878906 -1.40007812 3.91507813 -1.31640625 3.06640625 C-1 1 -1 1 0 0 Z M-31 20 C-33.58995441 23.88493162 -33.25225542 27.10567236 -33.1953125 31.60546875 C-33.1924826 32.44467361 -33.18965271 33.28387848 -33.18673706 34.14851379 C-33.17554385 36.82832103 -33.15044101 39.50779381 -33.125 42.1875 C-33.11496908 44.00455246 -33.10584343 45.82161017 -33.09765625 47.63867188 C-33.07560734 52.09257675 -33.04108351 56.54623167 -33 61 C-23.89040835 61.02312545 -14.78082674 61.04091612 -5.6712122 61.05181217 C-1.44168629 61.05704056 2.7878196 61.0641374 7.01733398 61.07543945 C11.09568543 61.08626991 15.17401757 61.09227717 19.25238228 61.09487724 C20.81177639 61.09673121 22.3711694 61.10035127 23.93055534 61.10573006 C26.10729162 61.11294262 28.28394714 61.11399085 30.46069336 61.11352539 C31.70201523 61.115746 32.9433371 61.11796661 34.22227478 61.12025452 C36.907817 61.31747011 36.907817 61.31747011 38 60 C38.1258401 57.47652459 38.18865555 54.98193301 38.203125 52.45703125 C38.20882507 51.69581467 38.21452515 50.93459808 38.22039795 50.15031433 C38.22986522 48.53373612 38.23638876 46.91713846 38.24023438 45.30053711 C38.24989213 42.83998193 38.28087778 40.38027907 38.3125 37.91992188 C38.31903476 36.34896329 38.32428337 34.77799873 38.328125 33.20703125 C38.3466452 32.10981499 38.3466452 32.10981499 38.36553955 30.99043274 C38.34516832 26.25894136 37.69184562 22.92371339 35 19 C31.3842348 17.16653531 28.39530791 16.74448301 24.37109375 16.7253418 C23.26644775 16.71580978 22.16180176 16.70627777 21.02368164 16.69645691 C19.8402417 16.69736832 18.65680176 16.69827972 17.4375 16.69921875 C15.60143188 16.69279106 15.60143188 16.69279106 13.72827148 16.68623352 C11.14274717 16.68049574 8.55720672 16.67998588 5.97167969 16.68432617 C2.01469449 16.68748826 -1.94154459 16.66401134 -5.8984375 16.63867188 C-8.41145739 16.63639907 -10.92447929 16.6356953 -13.4375 16.63671875 C-14.62093994 16.627509 -15.80437988 16.61829926 -17.02368164 16.60881042 C-18.12832764 16.61503922 -19.23297363 16.62126801 -20.37109375 16.62768555 C-21.33974365 16.62705612 -22.30839355 16.6264267 -23.30639648 16.6257782 C-26.53263761 17.07399924 -28.38315502 18.08417845 -31 20 Z M-33 67 C-33.08142927 68.7492214 -33.13938541 70.49954542 -33.1875 72.25 C-33.22230469 73.22453125 -33.25710937 74.1990625 -33.29296875 75.203125 C-32.95519178 78.42776918 -32.25529239 79.70790797 -30 82 C-27.09350505 82.96883165 -25.59767919 83.04822478 -22.61328125 82.89453125 C-9.00408027 82.57705178 -9.00408027 82.57705178 -5.28076172 85.22070312 C-2.40124394 88.38276658 -0.59059778 92.06505101 1 96 C1.99 95.67 2.98 95.34 4 95 C4.82915004 93.17413649 5.63871075 91.33934855 6.4375 89.5 C8.2900658 86.3815812 9.5841078 84.36441867 13.20068359 83.43359375 C17.61117218 82.95006595 21.95421215 83.01437927 26.3828125 83.125 C30.4086732 83.17841042 32.79188857 82.62133956 36 80 C38.79399456 76.40772128 38.21367095 72.34464263 38 68 C36.907817 66.68252989 36.907817 66.68252989 34.22227478 66.87974548 C32.36029198 66.8830764 32.36029198 66.8830764 30.46069336 66.88647461 C29.77779739 66.88632858 29.09490143 66.88618256 28.39131165 66.8860321 C26.12412386 66.88673124 23.85701726 66.8945236 21.58984375 66.90234375 C20.02185613 66.90420793 18.45386793 66.90563183 16.88587952 66.90663147 C12.75123497 66.91045666 8.61662534 66.92028694 4.48199463 66.93133545 C0.26599602 66.94154956 -3.95000822 66.94612909 -8.16601562 66.95117188 C-16.44402647 66.96190921 -24.7220089 66.97898564 -33 67 Z " fill="#15B2F6" transform="translate(279,152)"/>
<path d="M0 0 C1.39120471 0.00015906 2.78241534 0.00585033 4.17358398 0.01586914 C4.90463852 0.01728409 5.63569305 0.01869904 6.38890076 0.02015686 C8.73253406 0.02577131 11.07607313 0.03832617 13.41967773 0.05102539 C15.00496282 0.05603853 16.59024939 0.06060176 18.17553711 0.06469727 C22.06945383 0.07574542 25.96329979 0.09301967 29.85717773 0.11352539 C29.85717773 3.74352539 29.85717773 7.37352539 29.85717773 11.11352539 C23.25717773 11.11352539 16.65717773 11.11352539 9.85717773 11.11352539 C9.85717773 15.07352539 9.85717773 19.03352539 9.85717773 23.11352539 C16.12717773 23.11352539 22.39717773 23.11352539 28.85717773 23.11352539 C28.85717773 26.74352539 28.85717773 30.37352539 28.85717773 34.11352539 C22.58717773 34.11352539 16.31717773 34.11352539 9.85717773 34.11352539 C9.85717773 38.73352539 9.85717773 43.35352539 9.85717773 48.11352539 C16.45717773 48.11352539 23.05717773 48.11352539 29.85717773 48.11352539 C29.85717773 51.41352539 29.85717773 54.71352539 29.85717773 58.11352539 C18.63717773 58.11352539 7.41717773 58.11352539 -4.14282227 58.11352539 C-4.16376811 50.70567712 -4.18380616 43.29793551 -4.19457245 35.89008331 C-4.19986203 32.44070677 -4.20693527 28.99135464 -4.21826172 25.54199219 C-4.23116461 21.58797496 -4.23605144 17.63396784 -4.24047852 13.67993164 C-4.2456398 12.43828751 -4.25080109 11.19664337 -4.25611877 9.91737366 C-4.25619431 8.77626633 -4.25626984 7.635159 -4.25634766 6.45947266 C-4.25856827 5.44909439 -4.26078888 4.43871613 -4.26307678 3.39772034 C-4.07539625 -0.16720964 -3.65645769 0.13207899 0 0 Z " fill="#010101" transform="translate(203.142822265625,265.886474609375)"/>
<path d="M0 0 C3.54068014 2.58373956 4.60988198 5.10807822 5.60522461 9.32739258 C6.49184603 15.32977026 6.20035433 21.44606131 6.125 27.5 C6.11495069 28.90884781 6.10582829 30.31770255 6.09765625 31.7265625 C6.07419969 35.1512205 6.04137384 38.57551939 6 42 C2.7 42 -0.6 42 -4 42 C-4.33 40.68 -4.66 39.36 -5 38 C-5.51046875 38.3609375 -6.0209375 38.721875 -6.546875 39.09375 C-12.9402505 43.17462798 -18.4854643 44.16512716 -26 43 C-29.18497459 41.79105974 -31.26682155 40.1532286 -33.125 37.23046875 C-34.90559035 32.69155317 -34.51072392 27.7798521 -34 23 C-32.10829127 19.13776134 -30.47207587 18.24939857 -26.6875 16.25 C-20.42867815 14.13988292 -13.55074914 14.24735902 -7 14 C-7.99 12.02 -8.98 10.04 -10 8 C-15.77807024 7.7641604 -20.51324804 8.13216954 -26 10 C-29.22265625 4.82421875 -29.22265625 4.82421875 -30 3 C-29 0 -29 0 -27.390625 -0.94921875 C-18.47263382 -4.02494929 -8.33594749 -4.96609638 0 0 Z M-21 26 C-21.16681109 29.08347826 -21.16681109 29.08347826 -21 32 C-17.28827437 33.67911398 -15.67278406 34.23288679 -11.75 32.875 C-8.95644193 30.97030131 -7.93792862 30.18895731 -7 27 C-6.83249586 24.33290931 -6.83249586 24.33290931 -7 22 C-12.09745779 21.69106316 -17.28835785 22.28835785 -21 26 Z " fill="#010101" transform="translate(375,282)"/>
<path d="M0 0 C4.29 0 8.58 0 13 0 C13.09063997 7.94563957 13.16390979 15.89087214 13.20724869 23.83689117 C13.2280571 27.52719955 13.25624919 31.21713358 13.30175781 34.90722656 C13.34545943 38.47342061 13.36918776 42.03925631 13.37950897 45.60569763 C13.39041494 47.61750112 13.42160191 49.62916196 13.45318604 51.64074707 C13.45495826 58.9184518 13.02847439 63.85874091 9 70 C4.27567983 74.49386553 0.76993464 75.13917946 -5.625 75.125 C-6.79289063 75.12757813 -7.96078125 75.13015625 -9.1640625 75.1328125 C-12 75 -12 75 -13 74 C-13.07226502 72.14712498 -13.0838122 70.29166122 -13.0625 68.4375 C-13.05347656 67.42558594 -13.04445312 66.41367187 -13.03515625 65.37109375 C-13.02355469 64.58863281 -13.01195312 63.80617188 -13 63 C-12.38511719 63.03480469 -11.77023438 63.06960938 -11.13671875 63.10546875 C-9.92435547 63.14607422 -9.92435547 63.14607422 -8.6875 63.1875 C-7.88699219 63.22230469 -7.08648437 63.25710938 -6.26171875 63.29296875 C-3.98145584 63.17842 -3.98145584 63.17842 -2.38566589 61.84721375 C-0.43670571 59.24907948 -0.60147974 57.38116677 -0.56762695 54.15161133 C-0.54783279 52.9505928 -0.52803864 51.74957428 -0.50764465 50.51216125 C-0.50125473 49.21521835 -0.49486481 47.91827545 -0.48828125 46.58203125 C-0.47143541 45.24108734 -0.45328529 43.90015924 -0.43388367 42.55924988 C-0.38636642 39.03297869 -0.35656867 35.50677156 -0.33044434 31.98028564 C-0.3006472 28.3806086 -0.25411406 24.78115232 -0.20898438 21.18164062 C-0.12293189 14.12120603 -0.05714256 7.06073636 0 0 Z " fill="#010101" transform="translate(173,266)"/>
<path d="M0 0 C1.67542976 0.28604898 3.34385343 0.61781233 5 1 C5.495 5.455 5.495 5.455 6 10 C6.82201904 10.01458252 7.64403809 10.02916504 8.4909668 10.04418945 C12.22361323 10.11876333 15.95537459 10.21539512 19.6875 10.3125 C21.62786133 10.34633789 21.62786133 10.34633789 23.60742188 10.38085938 C24.85458984 10.41630859 26.10175781 10.45175781 27.38671875 10.48828125 C28.53358154 10.51446533 29.68044434 10.54064941 30.86206055 10.56762695 C36.14586181 11.29567582 39.54728636 14.05404155 43 18 C44.15927528 21.47782583 44.11313066 24.18803257 44.09765625 27.85546875 C44.0962413 28.51710526 44.09482635 29.17874176 44.09336853 29.86042786 C44.08777996 31.96949828 44.07522965 34.07846177 44.0625 36.1875 C44.05748352 37.61913909 44.05292087 39.05077985 44.04882812 40.48242188 C44.0378143 43.98831588 44.02055755 47.4941475 44 51 C43.34 50.67 42.68 50.34 42 50 C41.67 40.43 41.34 30.86 41 21 C35.68698416 18.34349208 34.23972099 17.62412321 28.79858398 17.61181641 C27.59390976 17.60235992 26.38923553 17.59290344 25.14805603 17.5831604 C23.2165847 17.59226944 23.2165847 17.59226944 21.24609375 17.6015625 C19.89901065 17.59953909 18.55192862 17.59662543 17.20484924 17.59286499 C14.38979604 17.58845566 11.5750295 17.59482833 8.76000977 17.60888672 C5.15978196 17.62599478 1.56022438 17.6161191 -2.03997898 17.59816933 C-4.81875116 17.58730759 -7.59736546 17.59078839 -10.3761425 17.5985527 C-12.34643364 17.6015137 -14.31673104 17.59243784 -16.28700256 17.5831604 C-17.48852463 17.59261688 -18.69004669 17.60207336 -19.92797852 17.61181641 C-20.98243668 17.61420319 -22.03689484 17.61658997 -23.12330627 17.61904907 C-26.43191346 18.05719685 -28.32316486 19.03714348 -31 21 C-32.60951543 24.21903085 -32.24234748 27.74838832 -32.31640625 31.2890625 C-32.33718735 32.10748627 -32.35796844 32.92591003 -32.37937927 33.76913452 C-32.44484812 36.38766966 -32.50374726 39.00630639 -32.5625 41.625 C-32.60568776 43.39844807 -32.64930214 45.17188581 -32.69335938 46.9453125 C-32.80052676 51.29677046 -32.90180169 55.64833077 -33 60 C-33.33 60 -33.66 60 -34 60 C-34.33 47.79 -34.66 35.58 -35 23 C-35.66 23 -36.32 23 -37 23 C-37.33 42.14 -37.66 61.28 -38 81 C-40.61105707 78.38894293 -40.25772816 77.27375893 -40.2746582 73.63574219 C-40.28419022 72.51407654 -40.29372223 71.39241089 -40.30354309 70.23675537 C-40.30263168 69.01909485 -40.30172028 67.80143433 -40.30078125 66.546875 C-40.30506638 65.29876038 -40.3093515 64.05064575 -40.31376648 62.76470947 C-40.31952024 60.11822529 -40.32093388 57.4721297 -40.31567383 54.82568359 C-40.3098983 51.4451734 -40.3267593 48.06521453 -40.3500185 44.68479538 C-40.3683638 41.45132641 -40.36456879 38.21788661 -40.36328125 34.984375 C-40.372491 33.7748114 -40.38170074 32.5652478 -40.39118958 31.31903076 C-40.33320782 20.76044446 -40.33320782 20.76044446 -37 16 C-32.37644272 11.72320952 -28.98449902 10.88681452 -22.80078125 10.68359375 C-21.59228516 10.64169922 -20.38378906 10.59980469 -19.13867188 10.55664062 C-17.87603516 10.51732422 -16.61339844 10.47800781 -15.3125 10.4375 C-14.03826172 10.39431641 -12.76402344 10.35113281 -11.45117188 10.30664062 C-8.30089148 10.2004514 -5.15053161 10.09840467 -2 10 C-1.90912109 9.04287109 -1.90912109 9.04287109 -1.81640625 8.06640625 C-1.73261719 7.24011719 -1.64882813 6.41382813 -1.5625 5.5625 C-1.48128906 4.73878906 -1.40007812 3.91507813 -1.31640625 3.06640625 C-1 1 -1 1 0 0 Z " fill="#16ADEF" transform="translate(279,152)"/>
<path d="M0 0 C0.99 0 1.98 0 3 0 C3.02505615 1.145896 3.0501123 2.29179199 3.07592773 3.47241211 C3.16983106 7.70853598 3.27009275 11.94448928 3.37231445 16.18041992 C3.4157282 18.01664247 3.45739839 19.85290708 3.49731445 21.68920898 C3.55486169 24.32288311 3.61859998 26.95634421 3.68359375 29.58984375 C3.70030624 30.41588608 3.71701874 31.24192841 3.73423767 32.09300232 C3.47807433 35.85476753 3.47807433 35.85476753 5 39 C7.02414991 39.12375169 9.05257737 39.17797311 11.08032227 39.20532227 C13.03223228 39.2352401 13.03223228 39.2352401 15.02357483 39.26576233 C16.4545174 39.28274799 17.88546125 39.29962675 19.31640625 39.31640625 C20.7722992 39.33696906 22.22818609 39.35796534 23.68406677 39.37937927 C27.52272647 39.43466961 31.36144065 39.48404802 35.20019531 39.53222656 C39.11463288 39.58239091 43.02899096 39.63810336 46.94335938 39.69335938 C54.62883901 39.80102603 62.31438457 39.90245193 70 40 C70.99 41.98 70.99 41.98 72 44 C71.29335709 44.01030746 70.58671417 44.02061493 69.85865784 44.03123474 C63.16554349 44.12963276 56.47250719 44.23220305 49.77952671 44.33933926 C46.33945689 44.39426137 42.89937826 44.44762831 39.45922852 44.49731445 C35.49487454 44.55464242 31.53064814 44.61896252 27.56640625 44.68359375 C25.7330648 44.70866249 25.7330648 44.70866249 23.86268616 44.73423767 C17.50594877 44.84348707 11.30456445 45.1709955 5 46 C4.94583812 47.60379341 4.90713362 49.20811406 4.875 50.8125 C4.84019531 52.15248047 4.84019531 52.15248047 4.8046875 53.51953125 C4.81714173 56.25402714 4.81714173 56.25402714 7 59 C7.99 59.33 8.98 59.66 10 60 C10.33 60.66 10.66 61.32 11 62 C11.55985596 62.00410889 12.11971191 62.00821777 12.6965332 62.01245117 C15.2362587 62.04537305 17.77357981 62.11600694 20.3125 62.1875 C21.63411133 62.19620117 21.63411133 62.19620117 22.98242188 62.20507812 C25.42331369 62.28860674 27.62923627 62.40830758 30 63 C32.10546875 65.55078125 32.10546875 65.55078125 33 68 C32.01 68.495 32.01 68.495 31 69 C32.32 69.66 33.64 70.32 35 71 C34.01 71.99 33.02 72.98 32 74 C31.67 73.01 31.34 72.02 31 71 C30.01 71 29.02 71 28 71 C27.34 70.01 26.68 69.02 26 68 C23.9586348 67.54171868 23.9586348 67.54171868 21.60546875 67.59375 C20.29545898 67.56087891 20.29545898 67.56087891 18.95898438 67.52734375 C18.04439453 67.51832031 17.12980469 67.50929688 16.1875 67.5 C5.06826293 67.388887 5.06826293 67.388887 1 64 C-1.30617203 60.54074196 -1.24841879 59.2432072 -1.24291992 55.16748047 C-1.24599655 53.96968964 -1.24907318 52.7718988 -1.25224304 51.53781128 C-1.24505753 50.24400543 -1.23787201 48.95019958 -1.23046875 47.6171875 C-1.22927661 46.27865646 -1.22882386 44.94012457 -1.2290802 43.60159302 C-1.22751691 40.79895783 -1.21923749 37.99645065 -1.20581055 35.19384766 C-1.18878806 31.59445706 -1.18499722 27.9952067 -1.18575573 24.39578056 C-1.1854844 21.63350069 -1.18000972 18.87125171 -1.17275429 16.10898209 C-1.16800936 14.13409044 -1.1662899 12.15919228 -1.16459656 10.18429565 C-1.15821671 8.99280914 -1.15183685 7.80132263 -1.14526367 6.57373047 C-1.14145187 5.51910614 -1.13764008 4.46448181 -1.13371277 3.37789917 C-1 1 -1 1 0 0 Z " fill="#07B0FA" transform="translate(242,174)"/>
<path d="M0 0 C4.29 0 8.58 0 13 0 C13 14.52 13 29.04 13 44 C8.71 44 4.42 44 0 44 C0 29.48 0 14.96 0 0 Z " fill="#010101" transform="translate(392,280)"/>
<path d="M0 0 C0.99 1.485 0.99 1.485 2 3 C1.67 3.33 1.34 3.66 1 4 C2.65 4 4.3 4 6 4 C5.07841078 7.31772121 4.13523721 8.88078616 1.52734375 11.1796875 C-2.52346638 13.2701388 -4.7546081 13.20748665 -9.18408203 12.99584961 C-16.90318979 12.4753496 -16.90318979 12.4753496 -23.77197266 15.37158203 C-26.99161083 19.161599 -28.96014373 23.50031706 -31 28 C-31.66 28.66 -32.32 29.32 -33 30 C-35.38671875 29.97265625 -35.38671875 29.97265625 -38 29 C-40.01953125 26.49609375 -40.01953125 26.49609375 -41.8125 23.4375 C-42.41707031 22.42558594 -43.02164062 21.41367188 -43.64453125 20.37109375 C-44.31548828 19.19740234 -44.31548828 19.19740234 -45 18 C-44.34 17.67 -43.68 17.34 -43 17 C-42.34 17.66 -41.68 18.32 -41 19 C-40.77390663 16.87635519 -40.77390663 16.87635519 -42.5 15.375 C-42.995 14.92125 -43.49 14.4675 -44 14 C-43.34 13.67 -42.68 13.34 -42 13 C-43.59959844 9.84889597 -43.59959844 9.84889597 -45.97119141 9.56762695 C-46.75671387 9.54144287 -47.54223633 9.51525879 -48.3515625 9.48828125 C-49.20234375 9.45283203 -50.053125 9.41738281 -50.9296875 9.38085938 C-51.81914062 9.35830078 -52.70859375 9.33574219 -53.625 9.3125 C-54.97078125 9.26125977 -54.97078125 9.26125977 -56.34375 9.20898438 C-58.56237538 9.12637598 -60.7805994 9.05727281 -63 9 C-63.33 8.34 -63.66 7.68 -64 7 C-46.35564367 5.19775503 -46.35564367 5.19775503 -40.890625 9.37890625 C-36 16.22399635 -36 16.22399635 -36 20 C-33.82517733 18.07611841 -32.19474908 16.48433251 -31.1015625 13.765625 C-29.70805532 10.6623537 -28.72976057 9.09097105 -26 7 C-21.78662141 6.10103102 -17.54127626 6.10330767 -13.24804688 6.16137695 C-6.62873684 6.29911061 -6.62873684 6.29911061 -1 3 C-0.67 2.01 -0.34 1.02 0 0 Z " fill="#21ACE9" transform="translate(316,228)"/>
<path d="M0 0 C0.66 0.33 1.32 0.66 2 1 C0.68 2.65 -0.64 4.3 -2 6 C-1.01 5.67 -0.02 5.34 1 5 C1.66 5.33 2.32 5.66 3 6 C3 5.34 3 4.68 3 4 C4.65 4 6.3 4 8 4 C7.195625 4.61875 6.39125 5.2375 5.5625 5.875 C2.96125481 7.74164041 2.96125481 7.74164041 2 10 C1.84308093 12.76931368 1.74156866 15.51734107 1.68359375 18.2890625 C1.66281265 19.10748627 1.64203156 19.92591003 1.62062073 20.76913452 C1.55515188 23.38766966 1.49625274 26.00630639 1.4375 28.625 C1.39431224 30.39844807 1.35069786 32.17188581 1.30664062 33.9453125 C1.19947324 38.29677046 1.09819831 42.64833077 1 47 C0.67 47 0.34 47 0 47 C-0.33 34.79 -0.66 22.58 -1 10 C-1.66 10 -2.32 10 -3 10 C-3.33 29.14 -3.66 48.28 -4 68 C-6.61105707 65.38894293 -6.25772816 64.27375893 -6.2746582 60.63574219 C-6.28419022 59.51407654 -6.29372223 58.39241089 -6.30354309 57.23675537 C-6.30263168 56.01909485 -6.30172028 54.80143433 -6.30078125 53.546875 C-6.30506638 52.29876038 -6.3093515 51.05064575 -6.31376648 49.76470947 C-6.31952024 47.11822529 -6.32093388 44.4721297 -6.31567383 41.82568359 C-6.3098983 38.4451734 -6.3267593 35.06521453 -6.3500185 31.68479538 C-6.3683638 28.45132641 -6.36456879 25.21788661 -6.36328125 21.984375 C-6.372491 20.7748114 -6.38170074 19.5652478 -6.39118958 18.31903076 C-6.35349659 11.45506853 -6.09425128 6.43805698 -1.3125 1.125 C-0.879375 0.75375 -0.44625 0.3825 0 0 Z " fill="#2EA8E0" transform="translate(245,165)"/>
<path d="M0 0 C1.65 0.33 3.3 0.66 5 1 C5 9.58 5 18.16 5 27 C3.35 27.33 1.7 27.66 0 28 C-2.17237362 24.74143956 -2.25602651 23.77357656 -2.265625 20 C-2.26820313 19.030625 -2.27078125 18.06125 -2.2734375 17.0625 C-2.26570312 16.051875 -2.25796875 15.04125 -2.25 14 C-2.25773438 12.989375 -2.26546875 11.97875 -2.2734375 10.9375 C-2.27085937 9.968125 -2.26828125 8.99875 -2.265625 8 C-2.26336914 7.113125 -2.26111328 6.22625 -2.25878906 5.3125 C-2 3 -2 3 0 0 Z " fill="#14D4FA" transform="translate(224,180)"/>
<path d="M0 0 C1.65 0 3.3 0 5 0 C5.91042911 3.10920129 6.12870382 5.89810897 6.1328125 9.1328125 C6.13410156 10.10347656 6.13539063 11.07414063 6.13671875 12.07421875 C6.13285156 13.08097656 6.12898438 14.08773437 6.125 15.125 C6.12886719 16.13949219 6.13273437 17.15398437 6.13671875 18.19921875 C6.13542969 19.16730469 6.13414062 20.13539063 6.1328125 21.1328125 C6.13168457 22.01855957 6.13055664 22.90430664 6.12939453 23.81689453 C6 26 6 26 5 28 C3.35 28 1.7 28 0 28 C-1.29361994 25.41276011 -1.12948949 23.51886997 -1.1328125 20.625 C-1.13410156 19.55765625 -1.13539063 18.4903125 -1.13671875 17.390625 C-1.13285156 16.27171875 -1.12898438 15.1528125 -1.125 14 C-1.12886719 12.88109375 -1.13273437 11.7621875 -1.13671875 10.609375 C-1.13542969 9.54203125 -1.13414062 8.4746875 -1.1328125 7.375 C-1.13168457 6.39273438 -1.13055664 5.41046875 -1.12939453 4.3984375 C-1 2 -1 2 0 0 Z " fill="#16ABEA" transform="translate(334,180)"/>
<path d="M0 0 C2 1.625 2 1.625 3 4 C2.67272727 10.32727273 2.67272727 10.32727273 0 13 C-2.99161275 13.97025279 -4.63788051 14.1010566 -7.6875 13.25 C-10 12 -10 12 -12 9 C-12.54954205 3.72439634 -12.54954205 3.72439634 -10.625 1.1875 C-6.89534842 -1.53801462 -4.45698847 -1.01650614 0 0 Z " fill="#020202" transform="translate(331,312)"/>
<path d="M0 0 C1.19109375 0.00773437 1.19109375 0.00773437 2.40625 0.015625 C3.2003125 0.01046875 3.994375 0.0053125 4.8125 0 C6.90625 0.265625 6.90625 0.265625 8.90625 2.265625 C9.171875 4.140625 9.171875 4.140625 9.15625 6.265625 C9.16140625 6.966875 9.1665625 7.668125 9.171875 8.390625 C8.90625 10.265625 8.90625 10.265625 6.90625 12.265625 C4.8125 12.53125 4.8125 12.53125 2.40625 12.515625 C1.6121875 12.52078125 0.818125 12.5259375 0 12.53125 C-2.09375 12.265625 -2.09375 12.265625 -4.09375 10.265625 C-4.359375 8.390625 -4.359375 8.390625 -4.34375 6.265625 C-4.34890625 5.564375 -4.3540625 4.863125 -4.359375 4.140625 C-3.95305532 1.27248606 -2.8267862 0.35862213 0 0 Z " fill="#030303" transform="translate(396.09375,262.734375)"/>
<path d="M0 0 C1.32 0.33 2.64 0.66 4 1 C4.02505615 1.87325928 4.0501123 2.74651855 4.07592773 3.64624023 C4.17087709 6.87602552 4.27012029 10.10564154 4.37231445 13.33520508 C4.41571434 14.73489199 4.45738564 16.13463359 4.49731445 17.53442383 C4.55489445 19.54261495 4.61914 21.55061149 4.68359375 23.55859375 C4.72025146 24.76829834 4.75690918 25.97800293 4.79467773 27.22436523 C4.68938266 29.90705456 4.68938266 29.90705456 6 31 C6.07179964 32.51928038 6.08392007 34.04167482 6.0625 35.5625 C6.05347656 36.38878906 6.04445313 37.21507812 6.03515625 38.06640625 C6.02355469 38.70449219 6.01195312 39.34257812 6 40 C3.525 40.495 3.525 40.495 1 41 C0.67 27.47 0.34 13.94 0 0 Z " fill="#07B0FA" transform="translate(317,172)"/>
<path d="M0 0 C0.99 0 1.98 0 3 0 C3 1.32 3 2.64 3 4 C-1.14923058 4.78579793 -5.05293431 5.11854983 -9.2734375 5.09765625 C-10.42714844 5.09443359 -11.58085937 5.09121094 -12.76953125 5.08789062 C-13.95933594 5.07951172 -15.14914062 5.07113281 -16.375 5.0625 C-17.58800781 5.05798828 -18.80101562 5.05347656 -20.05078125 5.04882812 C-23.03390507 5.03708354 -26.01692679 5.0206584 -29 5 C-29 5.66 -29 6.32 -29 7 C-30.65 7 -32.3 7 -34 7 C-32.84826645 4.53199953 -31.95216435 2.95216435 -30 1 C-27.12670898 0.78881836 -27.12670898 0.78881836 -23.49609375 0.83984375 C-22.19865234 0.85080078 -20.90121094 0.86175781 -19.56445312 0.87304688 C-18.18879158 0.89384804 -16.81314034 0.91534095 -15.4375 0.9375 C-12.7486895 0.97376284 -10.06005584 1.00193834 -7.37109375 1.02734375 C-6.17411865 1.04531006 -4.97714355 1.06327637 -3.74389648 1.08178711 C-1.0879173 1.31649248 -1.0879173 1.31649248 0 0 Z " fill="#07AFFB" transform="translate(277,164)"/>
<path d="M0 0 C0.66 0.99 1.32 1.98 2 3 C1.67 3.33 1.34 3.66 1 4 C2.65 4 4.3 4 6 4 C5.01387981 7.55003269 4.08032022 8.93395893 1.1875 11.3125 C-1.97385369 12.98615784 -3.50989741 13.4106003 -7 13 C-7 12.01 -7 11.02 -7 10 C-13.27 10 -19.54 10 -26 10 C-26 9.01 -26 8.02 -26 7 C-25.42032471 6.98541748 -24.84064941 6.97083496 -24.2434082 6.95581055 C-21.59912447 6.88101472 -18.95605998 6.78446102 -16.3125 6.6875 C-14.94448242 6.65366211 -14.94448242 6.65366211 -13.54882812 6.61914062 C-6.76966364 6.37221136 -6.76966364 6.37221136 -1 3 C-0.67 2.01 -0.34 1.02 0 0 Z " fill="#11B0F5" transform="translate(316,228)"/>
<path d="M0 0 C2 3 2 3 1.8125 5.5 C0.51552795 9.49068323 0.51552795 9.49068323 -2 11 C-5.625 10.8125 -5.625 10.8125 -9 10 C-10.39935013 7.20129973 -10.25265405 5.09501208 -10 2 C-7.65569181 -2.27491494 -4.20074737 -1.06928115 0 0 Z " fill="#0FB1F5" transform="translate(269,189)"/>
<path d="M0 0 C2 3 2 3 1.8125 6.0625 C1 9 1 9 -2 11 C-4.83079592 11.35384949 -6.36830089 11.3920891 -8.8125 9.875 C-10.57002414 7.09996189 -10.46822746 5.21070255 -10 2 C-6.96457461 -1.61916104 -4.32701626 -1.31691799 0 0 Z " fill="#25AAE6" transform="translate(302,189)"/>
<path d="M0 0 C2.475 0.495 2.475 0.495 5 1 C5 9.58 5 18.16 5 27 C3.35 27.33 1.7 27.66 0 28 C0.99 27.67 1.98 27.34 3 27 C3 21.39 3 15.78 3 10 C2.34 10 1.68 10 1 10 C1 12.64 1 15.28 1 18 C0.67 18 0.34 18 0 18 C0 12.06 0 6.12 0 0 Z " fill="#22AAE7" transform="translate(224,180)"/>
<path d="M0 0 C1.20366211 0.00966797 1.20366211 0.00966797 2.43164062 0.01953125 C3.26501953 0.03628906 4.09839844 0.05304688 4.95703125 0.0703125 C6.22450195 0.08384766 6.22450195 0.08384766 7.51757812 0.09765625 C9.60168368 0.12120547 11.68564342 0.15707603 13.76953125 0.1953125 C13.43953125 1.5153125 13.10953125 2.8353125 12.76953125 4.1953125 C7.15953125 4.1953125 1.54953125 4.1953125 -4.23046875 4.1953125 C-4.56046875 5.1853125 -4.89046875 6.1753125 -5.23046875 7.1953125 C-6.22046875 7.1953125 -7.21046875 7.1953125 -8.23046875 7.1953125 C-7.91796875 4.8203125 -7.91796875 4.8203125 -7.23046875 2.1953125 C-4.12961304 0.12807536 -3.50115194 -0.04966173 0 0 Z " fill="#06B0F9" transform="translate(296.23046875,236.8046875)"/>
<path d="M0 0 C0.33 0 0.66 0 1 0 C1.02578125 0.66386719 1.0515625 1.32773438 1.078125 2.01171875 C1.43351002 7.54441741 1.83118278 10.96566075 6 15 C5.01 15.495 5.01 15.495 4 16 C3.67 16.99 3.34 17.98 3 19 C4.32 19 5.64 19 7 19 C7 19.66 7 20.32 7 21 C1.64951939 20.62671065 -0.50912907 19.0042343 -4 15 C-3.34 13.35 -2.68 11.7 -2 10 C-1.34 10 -0.68 10 0 10 C0 6.7 0 3.4 0 0 Z " fill="#1BADED" transform="translate(245,220)"/>
<path d="M0 0 C1.48484412 0.39595843 2.9628831 0.81750706 4.4375 1.25 C5.26121094 1.48203125 6.08492188 1.7140625 6.93359375 1.953125 C9 3 9 3 9.85546875 4.99609375 C10 7 10 7 8.875 8.8125 C7 10 7 10 4.4375 9.875 C2 9 2 9 0 6 C-0.125 2.8125 -0.125 2.8125 0 0 Z " fill="#06B4FA" transform="translate(276,248)"/>
<path d="M0 0 C1.25361328 0.00644531 2.50722656 0.01289063 3.79882812 0.01953125 C5.76432617 0.04466797 5.76432617 0.04466797 7.76953125 0.0703125 C9.10481112 0.08034611 10.44009814 0.0894713 11.77539062 0.09765625 C15.0444514 0.12125958 18.31315153 0.15418656 21.58203125 0.1953125 C20.59203125 1.6803125 20.59203125 1.6803125 19.58203125 3.1953125 C17.4465332 3.55175781 17.4465332 3.55175781 14.8203125 3.5234375 C13.38848633 3.51570312 13.38848633 3.51570312 11.92773438 3.5078125 C10.92677734 3.4871875 9.92582031 3.4665625 8.89453125 3.4453125 C7.42209961 3.43757812 7.42209961 3.43757812 5.91992188 3.4296875 C0.71383859 3.37382074 -4.28755748 3.08506215 -9.41796875 2.1953125 C-5.83128562 -0.19580959 -4.25400306 -0.03849777 0 0 Z " fill="#2CA8DE" transform="translate(256.41796875,162.8046875)"/>
<path d="M0 0 C2 2 2 2 2.22705078 4.24658203 C2.21657715 5.15778809 2.20610352 6.06899414 2.1953125 7.0078125 C2.18886719 7.99394531 2.18242187 8.98007813 2.17578125 9.99609375 C2.15902344 11.02863281 2.14226562 12.06117188 2.125 13.125 C2.11597656 14.16527344 2.10695313 15.20554688 2.09765625 16.27734375 C2.07403747 18.85179092 2.04110149 21.42578212 2 24 C1.01 24.33 0.02 24.66 -1 25 C-0.67 16.75 -0.34 8.5 0 0 Z " fill="#09D1FB" transform="translate(338,182)"/>
<path d="M0 0 C1.67542976 0.28604898 3.34385343 0.61781233 5 1 C5.33 3.31 5.66 5.62 6 8 C5.01 8 4.02 8 3 8 C3 7.01 3 6.02 3 5 C2.34 5 1.68 5 1 5 C1 6.65 1 8.3 1 10 C0.34 10 -0.32 10 -1 10 C-1.02689216 8.52093108 -1.04634621 7.04172517 -1.0625 5.5625 C-1.07410156 4.73878906 -1.08570313 3.91507813 -1.09765625 3.06640625 C-1 1 -1 1 0 0 Z " fill="#1BB3EB" transform="translate(279,152)"/>
<path d="M0 0 C0.66 0 1.32 0 2 0 C2 5.61 2 11.22 2 17 C1.01 17 0.02 17 -1 17 C-1.12036664 11.22240116 -0.8320582 5.72040011 0 0 Z " fill="#07AFFA" transform="translate(225,190)"/>
<path d="M0 0 C1.65 0 3.3 0 5 0 C6.32 2.31 7.64 4.62 9 7 C7.68 7 6.36 7 5 7 C4.01 8.485 4.01 8.485 3 10 C1.02 6.535 1.02 6.535 -1 3 C-0.34 3 0.32 3 1 3 C1.66 3.66 2.32 4.32 3 5 C3.22609337 2.87635519 3.22609337 2.87635519 1.5 1.375 C1.005 0.92125 0.51 0.4675 0 0 Z " fill="#1FABEC" transform="translate(272,242)"/>
<path d="M0 0 C5.94 0 11.88 0 18 0 C18 0.66 18 1.32 18 2 C12.06 2.33 6.12 2.66 0 3 C0 2.01 0 1.02 0 0 Z " fill="#31AADE" transform="translate(290,235)"/>
<path d="M0 0 C2.875 0.3125 2.875 0.3125 6 1 C8 4 8 4 7.8125 6.5 C6.92477635 9.23145737 6.37086309 10.39120004 4 12 C1.3125 12.1875 1.3125 12.1875 -1 12 C0.32 11.67 1.64 11.34 3 11 C3.66 8.03 4.32 5.06 5 2 C3.35 1.67 1.7 1.34 0 1 C0 0.67 0 0.34 0 0 Z " fill="#26AEE5" transform="translate(263,188)"/>
<path d="M0 0 C2.64 0 5.28 0 8 0 C8 0.66 8 1.32 8 2 C7.34 2 6.68 2 6 2 C5.67 3.32 5.34 4.64 5 6 C3.35 6 1.7 6 0 6 C0 4.02 0 2.04 0 0 Z " fill="#05B1FA" transform="translate(294,191)"/>
<path d="M0 0 C0.66 0.99 1.32 1.98 2 3 C1.67 3.33 1.34 3.66 1 4 C2.65 4 4.3 4 6 4 C4.25 8.875 4.25 8.875 2 10 C2 8.68 2 7.36 2 6 C-0.31 6.33 -2.62 6.66 -5 7 C-4.0409375 6.1028125 -4.0409375 6.1028125 -3.0625 5.1875 C-0.79689611 3.09189663 -0.79689611 3.09189663 0 0 Z " fill="#25ABE5" transform="translate(316,228)"/>
<path d="M0 0 C0.66 0.99 1.32 1.98 2 3 C1.34 3 0.68 3 0 3 C-0.0825 3.7425 -0.165 4.485 -0.25 5.25 C-1.1396946 8.51221354 -2.48503749 9.80954878 -5 12 C-5.66 11.67 -6.32 11.34 -7 11 C-4.69 7.37 -2.38 3.74 0 0 Z " fill="#1EB8EB" transform="translate(289,236)"/>
<path d="M0 0 C4.455 0.99 4.455 0.99 9 2 C8.01 3.485 8.01 3.485 7 5 C4.625 4.75 4.625 4.75 2 4 C1.34 2.68 0.68 1.36 0 0 Z " fill="#28A8E5" transform="translate(276,253)"/>
<path d="M0 0 C0.66 1.32 1.32 2.64 2 4 C1.01 5.485 1.01 5.485 0 7 C-2.625 7.1875 -2.625 7.1875 -5 7 C-4.67 5.68 -4.34 4.36 -4 3 C-3.01 3 -2.02 3 -1 3 C-0.67 2.01 -0.34 1.02 0 0 Z " fill="#1AABF2" transform="translate(300,193)"/>
<path d="M0 0 C2.78388975 1.70625501 3.85384206 2.47626739 4.75 5.6875 C4.8325 6.450625 4.915 7.21375 5 8 C3.02 7.34 1.04 6.68 -1 6 C-0.67 4.02 -0.34 2.04 0 0 Z " fill="#10AFF0" transform="translate(316,165)"/>
<path d="M0 0 C1.65 0 3.3 0 5 0 C4.195625 0.61875 3.39125 1.2375 2.5625 1.875 C-0.03874519 3.74164041 -0.03874519 3.74164041 -1 6 C-1.66 6 -2.32 6 -3 6 C-3.33 4.68 -3.66 3.36 -4 2 C-3.34 1.67 -2.68 1.34 -2 1 C-1.34 1.33 -0.68 1.66 0 2 C0 1.34 0 0.68 0 0 Z " fill="#20B2E7" transform="translate(248,169)"/>
<path d="M0 0 C0.66 0.33 1.32 0.66 2 1 C1.19185349 2.33597652 0.37836819 3.668725 -0.4375 5 C-0.88996094 5.7425 -1.34242188 6.485 -1.80859375 7.25 C-2.20175781 7.8275 -2.59492188 8.405 -3 9 C-3.33 9 -3.66 9 -4 9 C-4.25 6.75 -4.25 6.75 -4 4 C-2 1.6875 -2 1.6875 0 0 Z " fill="#20ACE6" transform="translate(292,241)"/>
</svg>
